<mxfile host="app.diagrams.net" modified="2022-12-06T14:47:33.062Z" agent="5.0 (Macintosh; Intel Mac OS X 10_15_7) AppleWebKit/537.36 (KHTML, like Gecko) Chrome/107.0.0.0 Safari/537.36" version="20.6.0" etag="JECsAiB5DPKOpf2lPc3M" type="github">
  <diagram id="wwiGeuDjV-2Dgv3TE1_h" name="Page-1">
    <mxGraphModel dx="3533" dy="1455" grid="1" gridSize="10" guides="1" tooltips="1" connect="1" arrows="1" fold="1" page="1" pageScale="1" pageWidth="827" pageHeight="1169" math="0" shadow="0">
      <root>
        <mxCell id="0" />
        <mxCell id="1" parent="0" />
        <mxCell id="MNQXYniCzQ9CJ821ZrHZ-22" value="" style="group" vertex="1" connectable="0" parent="1">
          <mxGeometry x="-540" y="30" width="1200" height="1020" as="geometry" />
        </mxCell>
        <mxCell id="MNQXYniCzQ9CJ821ZrHZ-1" value="" style="group" vertex="1" connectable="0" parent="MNQXYniCzQ9CJ821ZrHZ-22">
          <mxGeometry x="184" width="770" height="310" as="geometry" />
        </mxCell>
        <mxCell id="MNQXYniCzQ9CJ821ZrHZ-2" value="&lt;span style=&quot;color: rgba(0, 0, 0, 0); font-family: monospace; font-size: 0px; text-align: start;&quot;&gt;%3CmxGraphModel%3E%3Croot%3E%3CmxCell%20id%3D%220%22%2F%3E%3CmxCell%20id%3D%221%22%20parent%3D%220%22%2F%3E%3CmxCell%20id%3D%222%22%20value%3D%22Customer%20can%20load%20money%20to%20wallet%20account%22%20style%3D%22text%3Bhtml%3D1%3BstrokeColor%3Dnone%3BfillColor%3Dnone%3Balign%3Dleft%3BverticalAlign%3Dmiddle%3BwhiteSpace%3Dwrap%3Brounded%3D0%3BfontSize%3D16%3BfontColor%3D%23443DFF%3B%22%20vertex%3D%221%22%20parent%3D%221%22%3E%3CmxGeometry%20x%3D%22-740%22%20y%3D%22230%22%20width%3D%22500%22%20height%3D%2230%22%20as%3D%22geometry%22%2F%3E%3C%2FmxCell%3E%3C%2Froot%3E%3C%2FmxGraphModel%3E&lt;/span&gt;" style="rounded=0;whiteSpace=wrap;html=1;fillColor=#fff2cc;strokeColor=#d6b656;" vertex="1" parent="MNQXYniCzQ9CJ821ZrHZ-1">
          <mxGeometry width="720" height="310" as="geometry" />
        </mxCell>
        <mxCell id="MNQXYniCzQ9CJ821ZrHZ-3" value="Business" style="text;strokeColor=none;fillColor=none;html=1;fontSize=24;fontStyle=1;verticalAlign=middle;align=center;" vertex="1" parent="MNQXYniCzQ9CJ821ZrHZ-1">
          <mxGeometry x="10" y="270" width="100" height="40" as="geometry" />
        </mxCell>
        <mxCell id="MNQXYniCzQ9CJ821ZrHZ-4" value="Pay Biller : Pay your utility bills&#xa;&#xa;a) Fetch billers and bills from 3rd party external applications.&#xa;&#xa;b) customer registration and wallet account creation&#xa;&#xa;c) customer wallet account load - assume as of now UPI payment&#xa;&#xa;b) Select a biller, fetch the bill and pay that using the wallet.&#xa;&#xa;c) Move funds from the customer wallet to the biller account.&#xa;&#xa;d) Bulk/File based Bill Payment through File&#xa;&#xa;" style="text;fontSize=14;fontStyle=0;verticalAlign=middle;align=left;whiteSpace=wrap;fontFamily=Verdana;labelBackgroundColor=none;fontColor=#0000CC;" vertex="1" parent="MNQXYniCzQ9CJ821ZrHZ-1">
          <mxGeometry x="10" width="760" height="300" as="geometry" />
        </mxCell>
        <mxCell id="MNQXYniCzQ9CJ821ZrHZ-5" value="" style="group" vertex="1" connectable="0" parent="MNQXYniCzQ9CJ821ZrHZ-22">
          <mxGeometry y="420" width="1200" height="600" as="geometry" />
        </mxCell>
        <mxCell id="MNQXYniCzQ9CJ821ZrHZ-6" value="" style="rounded=0;whiteSpace=wrap;html=1;fillColor=#f5f5f5;strokeColor=#666666;fontColor=#333333;" vertex="1" parent="MNQXYniCzQ9CJ821ZrHZ-5">
          <mxGeometry x="-30" y="-20" width="1200" height="620" as="geometry" />
        </mxCell>
        <mxCell id="MNQXYniCzQ9CJ821ZrHZ-7" value="&lt;font style=&quot;font-size: 18px;&quot;&gt;Customer Management&lt;/font&gt;" style="rounded=1;whiteSpace=wrap;html=1;fillColor=#dae8fc;strokeColor=#6c8ebf;" vertex="1" parent="MNQXYniCzQ9CJ821ZrHZ-5">
          <mxGeometry x="52" y="70" width="268" height="130" as="geometry" />
        </mxCell>
        <mxCell id="MNQXYniCzQ9CJ821ZrHZ-8" value="&lt;font style=&quot;font-size: 18px;&quot;&gt;Account Management&lt;/font&gt;" style="rounded=1;whiteSpace=wrap;html=1;fillColor=#dae8fc;strokeColor=#6c8ebf;" vertex="1" parent="MNQXYniCzQ9CJ821ZrHZ-5">
          <mxGeometry x="440" y="70" width="270" height="130" as="geometry" />
        </mxCell>
        <mxCell id="MNQXYniCzQ9CJ821ZrHZ-9" value="&lt;font style=&quot;font-size: 18px;&quot;&gt;Biller Management&lt;/font&gt;" style="rounded=1;whiteSpace=wrap;html=1;fillColor=#dae8fc;strokeColor=#6c8ebf;" vertex="1" parent="MNQXYniCzQ9CJ821ZrHZ-5">
          <mxGeometry x="830" y="70" width="270" height="130" as="geometry" />
        </mxCell>
        <mxCell id="MNQXYniCzQ9CJ821ZrHZ-10" value="&lt;font style=&quot;font-size: 18px;&quot;&gt;Notification management&lt;/font&gt;" style="rounded=1;whiteSpace=wrap;html=1;fillColor=#fff2cc;strokeColor=#d6b656;" vertex="1" parent="MNQXYniCzQ9CJ821ZrHZ-5">
          <mxGeometry x="440" y="270" width="270" height="130" as="geometry" />
        </mxCell>
        <mxCell id="MNQXYniCzQ9CJ821ZrHZ-11" value="&lt;font style=&quot;font-size: 18px;&quot;&gt;Batch Processing- Payment&lt;/font&gt;" style="rounded=1;whiteSpace=wrap;html=1;fillColor=#d5e8d4;strokeColor=#82b366;" vertex="1" parent="MNQXYniCzQ9CJ821ZrHZ-5">
          <mxGeometry x="830" y="270" width="270" height="130" as="geometry" />
        </mxCell>
        <mxCell id="MNQXYniCzQ9CJ821ZrHZ-12" value="&lt;font style=&quot;font-size: 18px;&quot;&gt;Payment Service&lt;/font&gt;" style="rounded=1;whiteSpace=wrap;html=1;fillColor=#dae8fc;strokeColor=#6c8ebf;" vertex="1" parent="MNQXYniCzQ9CJ821ZrHZ-5">
          <mxGeometry x="50" y="270" width="270" height="130" as="geometry" />
        </mxCell>
        <mxCell id="MNQXYniCzQ9CJ821ZrHZ-13" value="&lt;font style=&quot;font-size: 18px;&quot;&gt;Billpayment - Core domain&lt;/font&gt;" style="text;strokeColor=none;fillColor=none;html=1;fontSize=24;fontStyle=1;verticalAlign=middle;align=center;" vertex="1" parent="MNQXYniCzQ9CJ821ZrHZ-5">
          <mxGeometry x="70" width="100" height="40" as="geometry" />
        </mxCell>
        <mxCell id="MNQXYniCzQ9CJ821ZrHZ-14" value="" style="rounded=1;whiteSpace=wrap;html=1;fontSize=18;fillColor=#dae8fc;strokeColor=#6c8ebf;" vertex="1" parent="MNQXYniCzQ9CJ821ZrHZ-5">
          <mxGeometry x="30" y="500" width="40" height="20" as="geometry" />
        </mxCell>
        <mxCell id="MNQXYniCzQ9CJ821ZrHZ-15" value="" style="rounded=1;whiteSpace=wrap;html=1;fontSize=18;fillColor=#fff2cc;strokeColor=#d6b656;" vertex="1" parent="MNQXYniCzQ9CJ821ZrHZ-5">
          <mxGeometry x="30" y="540" width="40" height="20" as="geometry" />
        </mxCell>
        <mxCell id="MNQXYniCzQ9CJ821ZrHZ-16" value="&lt;ul&gt;&lt;li&gt;sub-domain&lt;/li&gt;&lt;/ul&gt;" style="text;strokeColor=none;fillColor=none;html=1;whiteSpace=wrap;verticalAlign=middle;overflow=hidden;fontSize=18;" vertex="1" parent="MNQXYniCzQ9CJ821ZrHZ-5">
          <mxGeometry x="62" y="480" width="150" height="50" as="geometry" />
        </mxCell>
        <mxCell id="MNQXYniCzQ9CJ821ZrHZ-17" value="&lt;ul&gt;&lt;li&gt;generic-domain&lt;/li&gt;&lt;/ul&gt;" style="text;strokeColor=none;fillColor=none;html=1;whiteSpace=wrap;verticalAlign=middle;overflow=hidden;fontSize=18;" vertex="1" parent="MNQXYniCzQ9CJ821ZrHZ-5">
          <mxGeometry x="60" y="520" width="200" height="50" as="geometry" />
        </mxCell>
        <mxCell id="MNQXYniCzQ9CJ821ZrHZ-18" value="" style="rounded=1;whiteSpace=wrap;html=1;fontSize=18;fillColor=#d5e8d4;strokeColor=#82b366;" vertex="1" parent="MNQXYniCzQ9CJ821ZrHZ-5">
          <mxGeometry x="270" y="500" width="40" height="20" as="geometry" />
        </mxCell>
        <mxCell id="MNQXYniCzQ9CJ821ZrHZ-19" value="&lt;ul&gt;&lt;li&gt;supporting-domain&lt;/li&gt;&lt;/ul&gt;" style="text;strokeColor=none;fillColor=none;html=1;whiteSpace=wrap;verticalAlign=middle;overflow=hidden;fontSize=18;" vertex="1" parent="MNQXYniCzQ9CJ821ZrHZ-5">
          <mxGeometry x="300" y="480" width="210" height="50" as="geometry" />
        </mxCell>
        <mxCell id="MNQXYniCzQ9CJ821ZrHZ-20" value="&lt;font style=&quot;font-size: 18px;&quot;&gt;Security Service&lt;br&gt;(Authentication/Authorisation)&lt;/font&gt;" style="rounded=1;whiteSpace=wrap;html=1;fillColor=#fff2cc;strokeColor=#d6b656;" vertex="1" parent="MNQXYniCzQ9CJ821ZrHZ-5">
          <mxGeometry x="830" y="460" width="270" height="117" as="geometry" />
        </mxCell>
        <mxCell id="MNQXYniCzQ9CJ821ZrHZ-24" style="edgeStyle=orthogonalEdgeStyle;rounded=0;orthogonalLoop=1;jettySize=auto;html=1;exitX=0;exitY=0.5;exitDx=0;exitDy=0;entryX=0;entryY=0;entryDx=0;entryDy=0;" edge="1" parent="MNQXYniCzQ9CJ821ZrHZ-5" source="MNQXYniCzQ9CJ821ZrHZ-18" target="MNQXYniCzQ9CJ821ZrHZ-18">
          <mxGeometry relative="1" as="geometry" />
        </mxCell>
      </root>
    </mxGraphModel>
  </diagram>
</mxfile>
